<svg xmlns="http://www.w3.org/2000/svg" viewBox="0 0 180 180">
  <defs>
    <linearGradient id="bg" x1="0" y1="0" x2="0" y2="1">
      <stop offset="0%" stop-color="#3D8060"/>
      <stop offset="100%" stop-color="#2A5C45"/>
    </linearGradient>
    <linearGradient id="sun" x1="0" y1="0" x2="0" y2="1">
      <stop offset="0%" stop-color="#E8C07A"/>
      <stop offset="100%" stop-color="#C8943A"/>
    </linearGradient>
  </defs>
  <!-- Background rounded square -->
  <rect width="180" height="180" rx="36" fill="url(#bg)"/>
  <!-- Subtle soil/ground arc -->
  <ellipse cx="90" cy="165" rx="70" ry="18" fill="#24503A" opacity="0.5"/>
  <!-- Main stem -->
  <path d="M90 148 L90 72" stroke="#C3DDD0" stroke-width="5" stroke-linecap="round"/>
  <!-- Left leaf -->
  <path d="M90 110 C70 108, 48 88, 50 65 C52 65, 75 72, 90 95" fill="#7BAE8E"/>
  <path d="M90 110 C78 96, 62 82, 50 65" stroke="#C3DDD0" stroke-width="1.5" fill="none" opacity="0.6"/>
  <!-- Right leaf -->
  <path d="M90 90 C110 88, 132 68, 130 45 C128 45, 105 52, 90 75" fill="#A8D5A2"/>
  <path d="M90 90 C102 76, 118 62, 130 45" stroke="#C3DDD0" stroke-width="1.5" fill="none" opacity="0.6"/>
  <!-- Small top leaf bud -->
  <path d="M90 72 C82 65, 78 52, 82 44 C84 44, 88 50, 90 62" fill="#7BAE8E"/>
  <path d="M90 72 C98 65, 102 52, 98 44 C96 44, 92 50, 90 62" fill="#A8D5A2"/>
  <!-- Sun -->
  <circle cx="140" cy="38" r="14" fill="url(#sun)"/>
  <g stroke="#E8C07A" stroke-width="2.5" stroke-linecap="round" opacity="0.8">
    <line x1="140" y1="18" x2="140" y2="13"/>
    <line x1="140" y1="58" x2="140" y2="63"/>
    <line x1="120" y1="38" x2="115" y2="38"/>
    <line x1="160" y1="38" x2="165" y2="38"/>
    <line x1="125.9" y1="23.9" x2="122.4" y2="20.4"/>
    <line x1="154.1" y1="52.1" x2="157.6" y2="55.6"/>
    <line x1="154.1" y1="23.9" x2="157.6" y2="20.4"/>
    <line x1="125.9" y1="52.1" x2="122.4" y2="55.6"/>
  </g>
</svg>
